<?xml version="1.0" encoding="UTF-8" standalone="no"?>
<!-- Created with Inkscape (http://www.inkscape.org/) -->

<svg
   width="120mm"
   height="120mm"
   viewBox="0 0 120 120"
   version="1.1"
   id="svg5"
   xml:space="preserve"
   inkscape:version="1.2.1 (9c6d41e410, 2022-07-14)"
   sodipodi:docname="napster_2nd.svg"
   xmlns:inkscape="http://www.inkscape.org/namespaces/inkscape"
   xmlns:sodipodi="http://sodipodi.sourceforge.net/DTD/sodipodi-0.dtd"
   xmlns="http://www.w3.org/2000/svg"
   xmlns:svg="http://www.w3.org/2000/svg"><sodipodi:namedview
     id="namedview7"
     pagecolor="#505050"
     bordercolor="#ffffff"
     borderopacity="1"
     inkscape:showpageshadow="0"
     inkscape:pageopacity="0"
     inkscape:pagecheckerboard="1"
     inkscape:deskcolor="#505050"
     inkscape:document-units="mm"
     showgrid="false"
     inkscape:zoom="0.73940797"
     inkscape:cx="142.68172"
     inkscape:cy="71.002751"
     inkscape:window-width="1920"
     inkscape:window-height="991"
     inkscape:window-x="-9"
     inkscape:window-y="-9"
     inkscape:window-maximized="1"
     inkscape:current-layer="g599" /><defs
     id="defs2" /><g
     inkscape:label="Layer 1"
     inkscape:groupmode="layer"
     id="layer1"
     transform="translate(-27.909915,44.673083)"><g
       id="g619"
       inkscape:export-filename="napster_logo.svg"
       inkscape:export-xdpi="25.4"
       inkscape:export-ydpi="25.4"><g
         id="g599"
         inkscape:export-filename="napster_2nd_logo.png"
         inkscape:export-xdpi="250"
         inkscape:export-ydpi="250"
         transform="translate(-38.03747,-127.09814)"><g
           id="g702"><rect
             style="fill:none;stroke-width:22.4117;stroke-linejoin:round"
             id="rect611"
             width="120"
             height="120"
             x="27.909914"
             y="-44.673084"
             transform="translate(38.03747,127.09814)" /><path
             id="path302"
             style="fill:#000000;stroke-width:0.264583"
             d="m 96.974441,97.228129 c -0.174178,0.0035 -0.341325,0.02549 -0.501261,0.06563 -2.187836,0.549111 -7.615331,8.820811 -10.351307,15.775781 -3.760632,9.55972 -6.308902,22.17322 -7.19801,35.62935 -0.284208,4.30131 -0.131392,7.76137 0.444418,10.07019 0.151348,0.60683 0.143961,0.60837 -1.842265,0.42839 -1.906506,-0.17277 -2.024035,-0.15052 -2.677873,0.50333 -0.817788,0.81779 -0.895848,1.97523 -0.19172,2.84479 0.40849,0.50447 0.981855,0.67941 3.369821,1.02991 l 2.87786,0.42271 0.594279,1.04955 c 0.32693,0.57724 0.59693,1.12683 0.59893,1.22163 0.0024,0.0948 -1.271349,0.32368 -2.830835,0.5085 -2.329926,0.27612 -2.943145,0.44356 -3.439583,0.93999 -0.78508,0.78504 -0.798157,2.10765 -0.02894,2.92644 0.696718,0.74163 1.288278,0.76148 5.706628,0.19172 l 3.261817,-0.42065 0.486792,0.61909 c 0.267818,0.34048 0.484658,0.73814 0.482658,0.88366 -0.0023,0.14552 -0.657316,0.5299 -1.455726,0.85473 -1.709496,0.69549 -2.152932,1.02841 -2.463932,1.8464 -0.27106,0.71293 0.09693,1.85942 0.75861,2.36213 0.734478,0.55802 1.76508,0.41726 4.138766,-0.56534 1.230386,-0.50932 2.364956,-0.92604 2.520776,-0.92604 0.15581,0 0.966236,0.55648 1.800924,1.23713 7.352584,5.99567 17.957352,9.75456 30.356802,10.75904 4.42851,0.35873 11.22397,-0.01 16.40417,-0.88987 8.12814,-1.38058 16.53366,-4.87535 22.35367,-9.29401 1.31304,-0.99688 2.48277,-1.81229 2.59933,-1.81229 0.11656,0 1.24579,0.41672 2.50889,0.92604 1.2631,0.50933 2.64665,0.92604 3.07475,0.92604 1.47851,0 2.39268,-2.05329 1.48828,-3.3445 -0.21262,-0.30356 -1.10818,-0.82208 -1.99006,-1.15186 -0.88187,-0.3298 -1.65311,-0.68007 -1.71411,-0.77877 -0.061,-0.0987 0.15183,-0.50899 0.47284,-0.91157 l 0.58343,-0.73226 3.8809,0.46768 c 3.0627,0.36875 4.02481,0.40118 4.56509,0.15503 1.39131,-0.63393 1.51204,-2.92633 0.18914,-3.5941 -0.38806,-0.19589 -1.83287,-0.49739 -3.21066,-0.67024 -1.37779,-0.17286 -2.56131,-0.37024 -2.62981,-0.43874 -0.0685,-0.0685 0.12394,-0.63586 0.42736,-1.26039 l 0.55139,-1.13533 2.60708,-0.33538 c 2.80841,-0.36104 3.67954,-0.74018 4.07262,-1.77405 0.33077,-0.86999 -0.28452,-2.3707 -1.07487,-2.62154 -0.32116,-0.1022 -1.35106,-0.10352 -2.28875,-0.003 l -1.70481,0.18293 0.21394,-1.67638 c 0.34667,-2.71385 0.1894,-11.15158 -0.28784,-15.43472 -2.19839,-19.73011 -7.66356,-35.47801 -15.07556,-43.440242 -1.35286,-1.453281 -1.49997,-1.537589 -2.62982,-1.514119 -0.86813,0.01804 -1.56155,0.258952 -2.52542,0.877466 -1.95647,1.255456 -5.79356,5.394035 -9.6945,10.457245 -1.89177,2.45538 -3.68193,4.75626 -3.97857,5.11286 l -0.5395,0.64854 -2.6355,-0.44958 c -3.97204,-0.6772 -12.42122,-0.82637 -16.39435,-0.28939 -1.74625,0.23602 -3.65125,0.49042 -4.23333,0.56482 l -1.05833,0.13488 -2.86598,-3.80132 C 103.83911,101.28281 99.587114,97.175918 96.974441,97.228129 Z m 7.526669,32.872931 c 1.89117,0.009 3.76479,0.30058 5.38159,0.7338 5.51866,1.47873 12.8023,5.88628 10.81691,13.29583 -1.98539,7.40955 -10.46579,7.15063 -15.90497,5.69319 -5.439195,-1.45741 -12.912887,-5.47338 -10.927503,-12.88293 1.364952,-5.09407 5.814733,-6.76913 10.255703,-6.83783 0.12617,-0.002 0.2522,-0.003 0.37827,-0.002 z m 42.89248,0 c 0.12607,-6e-4 0.2521,1.1e-4 0.37827,0.002 4.44096,0.0687 8.89075,1.74377 10.2557,6.83783 1.98539,7.40954 -5.48831,11.42553 -10.9275,12.88293 -5.43918,1.45744 -13.91958,1.71635 -15.90497,-5.69319 -1.98538,-7.40954 5.29826,-11.8171 10.81691,-13.29583 1.6168,-0.43322 3.49042,-0.72477 5.38159,-0.7338 z m -40.1066,2.26549 a 3.0643585,8.0056133 0 0 0 -3.06441,8.0052 3.0643585,8.0056133 0 0 0 3.06441,8.00571 3.0643585,8.0056133 0 0 0 3.06441,-8.00571 3.0643585,8.0056133 0 0 0 -3.06441,-8.0052 z m 37.32124,0 a 3.0643585,8.0056133 0 0 0 -3.06442,8.0052 3.0643585,8.0056133 0 0 0 3.06442,8.00571 3.0643585,8.0056133 0 0 0 3.06441,-8.00571 3.0643585,8.0056133 0 0 0 -3.06441,-8.0052 z" /></g></g><g
         id="g694"><path
           style="fill:#000000;stroke-width:0.264583"
           d="m 121.39225,354.8487 c -12.39947,-1.00448 -23.004602,-4.76294 -30.357202,-10.75861 -0.83469,-0.68065 -1.6451,-1.23754 -1.80091,-1.23754 -0.15582,0 -1.28999,0.41672 -2.52038,0.92604 -2.37369,0.9826 -3.40423,1.12336 -4.13871,0.56534 -0.66168,-0.50271 -1.03008,-1.64922 -0.75902,-2.36215 0.311,-0.81799 0.75479,-1.15043 2.46429,-1.84592 0.79841,-0.32483 1.45349,-0.70966 1.45574,-0.85518 0.002,-0.14552 -0.21505,-0.54316 -0.48287,-0.88364 l -0.48694,-0.61905 -3.26181,0.42061 c -4.41836,0.56976 -5.00997,0.54988 -5.70669,-0.19175 -0.76922,-0.81879 -0.75618,-2.14121 0.0289,-2.92625 0.49644,-0.49643 1.10966,-0.66405 3.43959,-0.94017 1.55949,-0.18482 2.83348,-0.41356 2.83108,-0.50831 -0.002,-0.0948 -0.27185,-0.64456 -0.59878,-1.2218 l -0.59444,-1.04952 -2.8777,-0.42239 c -2.38797,-0.3505 -2.96147,-0.52584 -3.36996,-1.03031 -0.70413,-0.86956 -0.62616,-2.02695 0.19163,-2.84474 0.65384,-0.65385 0.7715,-0.67596 2.67801,-0.50319 1.98623,0.17998 1.99353,0.17828 1.84218,-0.42857 -0.57581,-2.30882 -0.72844,-5.76855 -0.44423,-10.06988 0.88911,-13.45615 3.43732,-26.06955 7.19796,-35.62929 2.73598,-6.95499 8.16346,-15.22669 10.3513,-15.77581 2.559,-0.64227 6.898292,3.36875 14.379982,13.29214 l 2.86611,3.80149 1.05834,-0.1353 c 0.58208,-0.0744 2.48708,-0.3284 4.23333,-0.56442 3.97313,-0.53698 12.42196,-0.38789 16.394,0.28931 l 2.63567,0.44935 0.53933,-0.64837 c 0.29664,-0.3566 2.08715,-2.65733 3.97892,-5.11273 3.90096,-5.06321 7.73771,-9.20209 9.69418,-10.45754 0.96387,-0.61852 1.65735,-0.85947 2.5255,-0.87751 1.12985,-0.0235 1.27693,0.0612 2.62979,1.51451 7.41202,7.96225 12.87704,23.70964 15.07545,43.43979 0.47724,4.28314 0.63469,12.72087 0.28802,15.43472 l -0.21415,1.67639 1.70489,-0.18258 c 0.93769,-0.10042 1.96766,-0.0992 2.28882,0.003 0.79035,0.25084 1.40564,1.7514 1.07487,2.62139 -0.39308,1.03387 -1.26394,1.41331 -4.07237,1.77435 l -2.60709,0.33515 -0.55167,1.1355 c -0.30342,0.62453 -0.49564,1.19154 -0.42715,1.26002 0.0685,0.0685 1.2518,0.26594 2.62959,0.4388 1.37779,0.17285 2.82258,0.47455 3.21064,0.67044 1.3229,0.66777 1.20242,2.96026 -0.18889,3.59419 -0.54028,0.24617 -1.50257,0.21343 -4.56529,-0.15532 l -3.88071,-0.46723 -0.58366,0.73198 c -0.32101,0.40258 -0.53374,0.81274 -0.47273,0.91145 0.061,0.0987 0.83246,0.44931 1.71433,0.77911 0.88188,0.3298 1.77738,0.84801 1.99,1.15157 0.9044,1.29121 -0.01,3.34461 -1.48853,3.34461 -0.4281,0 -1.81182,-0.41672 -3.07492,-0.92605 -1.2631,-0.50932 -2.39191,-0.92604 -2.50847,-0.92604 -0.11656,0 -1.28623,0.81563 -2.59927,1.81251 -5.82003,4.41866 -14.22552,7.91341 -22.35368,9.29399 -5.1802,0.87986 -11.97566,1.2484 -16.40417,0.88965 z"
           id="path677"
           transform="translate(-38.037471,-127.09814)" /><g
           id="g683"
           transform="translate(-39.257515,40.26462)"><path
             id="path679"
             style="fill:#ff0000;stroke-width:2.53356;stroke-linejoin:round"
             d="m 105.34292,130.10317 c -4.44098,0.0687 -8.890748,1.74375 -10.255701,6.83783 -1.985386,7.40956 5.488301,11.42551 10.927501,12.88293 5.43919,1.45744 13.91958,1.71637 15.90497,-5.69319 1.98539,-7.40956 -5.29824,-11.8171 -10.81691,-13.29583 -1.72459,-0.4621 -3.74123,-0.76298 -5.75986,-0.73174 z m 3.16415,2.26343 a 3.0643585,8.0056133 0 0 1 3.06441,8.00519 3.0643585,8.0056133 0 0 1 -3.06441,8.00572 3.0643585,8.0056133 0 0 1 -3.06441,-8.00572 3.0643585,8.0056133 0 0 1 3.06441,-8.00519 z" /><path
             id="path681"
             style="fill:#ff0000;stroke-width:2.53356;stroke-linejoin:round"
             d="m 148.99194,130.10317 c -2.01863,-0.0312 -4.03527,0.26964 -5.75986,0.73174 -5.51867,1.47873 -12.80229,5.88627 -10.81691,13.29583 1.98539,7.40956 10.46578,7.15063 15.90498,5.69319 5.43919,-1.45742 12.91288,-5.47337 10.92749,-12.88293 -1.36495,-5.09408 -5.81472,-6.76911 -10.2557,-6.83783 z m -3.16363,2.26343 a 3.0643585,8.0056133 0 0 1 3.06441,8.00519 3.0643585,8.0056133 0 0 1 -3.06441,8.00572 3.0643585,8.0056133 0 0 1 -3.06441,-8.00572 3.0643585,8.0056133 0 0 1 3.06441,-8.00519 z" /></g><rect
           style="fill:none;stroke-width:22.4117;stroke-linejoin:round"
           id="rect675"
           width="120"
           height="120"
           x="27.909914"
           y="122.68968" /></g></g></g></svg>
