<?xml version="1.0" encoding="UTF-8" standalone="no"?>
<!-- Created with Inkscape (http://www.inkscape.org/) -->

<svg
   width="123.0943mm"
   height="123.09378mm"
   viewBox="0 0 123.0943 123.09378"
   version="1.1"
   id="svg5"
   xmlns:inkscape="http://www.inkscape.org/namespaces/inkscape"
   xmlns:sodipodi="http://sodipodi.sourceforge.net/DTD/sodipodi-0.dtd"
   xmlns="http://www.w3.org/2000/svg"
   xmlns:svg="http://www.w3.org/2000/svg">
  <sodipodi:namedview
     id="namedview7"
     pagecolor="#505050"
     bordercolor="#ffffff"
     borderopacity="1"
     inkscape:showpageshadow="0"
     inkscape:pageopacity="0"
     inkscape:pagecheckerboard="1"
     inkscape:deskcolor="#505050"
     inkscape:document-units="mm"
     showgrid="false" />
  <defs
     id="defs2" />
  <g
     inkscape:label="Layer 1"
     inkscape:groupmode="layer"
     id="layer1"
     transform="translate(336.71949,-64.767622)">
    <path
       id="path286"
       style="fill:#ffffff;stroke-width:22;stroke-linejoin:round"
       d="m -275.17235,64.767623 a 61.546986,61.546986 0 0 0 -61.54715,61.546627 61.546986,61.546986 0 0 0 61.54715,61.54715 61.546986,61.546986 0 0 0 61.54715,-61.54715 61.546986,61.546986 0 0 0 -61.54715,-61.546627 z m -21.82761,22.900928 a 7.1566267,7.1566267 0 0 1 7.15667,7.156669 7.1566267,7.1566267 0 0 1 -7.15667,7.15667 7.1566267,7.1566267 0 0 1 -7.15667,-7.15667 7.1566267,7.1566267 0 0 1 7.15667,-7.156669 z m 43.65522,0 a 7.1566267,7.1566267 0 0 1 7.15667,7.156669 7.1566267,7.1566267 0 0 1 -7.15667,7.15667 7.1566267,7.1566267 0 0 1 -7.15667,-7.15667 7.1566267,7.1566267 0 0 1 7.15667,-7.156669 z m -43.29762,21.470009 h 42.94002 a 21.469973,21.469973 0 0 1 -21.47001,21.47001 21.469973,21.469973 0 0 1 -21.47001,-21.47001 z" />
  </g>
</svg>
